<svg xmlns="http://www.w3.org/2000/svg" viewBox="0 0 200 200"><title>Google Calendar</title><path fill="#FFFFFF" d="M152.632,47.368l-47.368-5.263l-57.895,5.263L42.105,100l5.263,52.632l52.632,6.579l52.632-6.579l5.263-53.947L152.632,47.368z"/><path fill="#1A73E8" d="M68.961,129.026c-3.934-2.658-6.658-6.539-8.145-11.671l9.132-3.763c0.829,3.158,2.276,5.605,4.342,7.342c2.053,1.737,4.553,2.592,7.474,2.592c2.987,0,5.553-0.908,7.697-2.724s3.224-4.132,3.224-6.934c0-2.868-1.132-5.211-3.395-7.026s-5.105-2.724-8.5-2.724h-5.276v-9.039H80.25c2.921,0,5.382-0.789,7.382-2.368c2-1.579,3-3.737,3-6.487c0-2.447-0.895-4.395-2.684-5.855s-4.053-2.197-6.803-2.197c-2.684,0-4.816,0.711-6.395,2.145s-2.724,3.197-3.447,5.276l-9.039-3.763c1.197-3.395,3.395-6.395,6.618-8.987c3.224-2.592,7.342-3.895,12.342-3.895c3.697,0,7.026,0.711,9.974,2.145c2.947,1.434,5.263,3.421,6.934,5.947c1.671,2.539,2.5,5.382,2.5,8.539c0,3.224-0.776,5.947-2.329,8.184c-1.553,2.237-3.461,3.947-5.724,5.145v0.539c2.987,1.25,5.421,3.158,7.342,5.724c1.908,2.566,2.868,5.632,2.868,9.211s-0.908,6.776-2.724,9.579c-1.816,2.803-4.329,5.013-7.513,6.618c-3.197,1.605-6.789,2.421-10.776,2.421C77.158,133.013,72.895,131.684,68.961,129.026z"/><path fill="#1A73E8" d="M125,83.711l-9.974,7.25l-5.013-7.605l17.987-12.974h6.895v61.197H125L125,83.711z"/><path fill="#EA4335" d="M152.632,200l47.368-47.368l-23.684-10.526l-23.684,10.526l-10.526,23.684L152.632,200z"/><path fill="#34A853" d="M36.842,176.316l10.526,23.684h105.263v-47.368H47.368L36.842,176.316z"/><path fill="#4285F4" d="M15.789,0C7.066,0,0,7.066,0,15.789v136.842l23.684,10.526l23.684-10.526V47.368h105.263l10.526-23.684L152.632,0H15.789z"/><path fill="#188038" d="M0,152.632v31.579c0,8.724,7.066,15.789,15.789,15.789h31.579v-47.368H0z"/><path fill="#FBBC04" d="M152.632,47.368v105.263H200V47.368l-23.684-10.526L152.632,47.368z"/><path fill="#1967D2" d="M200,47.368V15.789C200,7.066,192.934,0,184.211,0h-31.579v47.368H200z"/></svg>
