<svg xmlns="http://www.w3.org/2000/svg" viewBox="0 0 512 512">
  <defs>
    <linearGradient id="grad" x1="0%" y1="0%" x2="100%" y2="100%">
      <stop offset="0%" style="stop-color:#0ea5e9;stop-opacity:1" />
      <stop offset="100%" style="stop-color:#0369a1;stop-opacity:1" />
    </linearGradient>
  </defs>
  <rect width="512" height="512" rx="102" fill="url(#grad)"/>
  <g fill="white">
    <!-- Brain/AI icon -->
    <path d="M256 120c-75 0-136 61-136 136s61 136 136 136 136-61 136-136-61-136-136-136zm0 240c-57.4 0-104-46.6-104-104s46.6-104 104-104 104 46.6 104 104-46.6 104-104 104z"/>
    <circle cx="220" cy="240" r="16"/>
    <circle cx="292" cy="240" r="16"/>
    <path d="M256 296c-22 0-40-12-50-30h100c-10 18-28 30-50 30z"/>
    <!-- Connection lines -->
    <rect x="248" y="80" width="16" height="48" rx="8"/>
    <rect x="248" y="384" width="16" height="48" rx="8"/>
    <rect x="80" y="248" width="48" height="16" rx="8"/>
    <rect x="384" y="248" width="48" height="16" rx="8"/>
  </g>
</svg>
